<?xml version="1.0" encoding="UTF-8" standalone="no"?>
<svg
   xmlns:dc="http://purl.org/dc/elements/1.1/"
   xmlns:cc="http://creativecommons.org/ns#"
   xmlns:rdf="http://www.w3.org/1999/02/22-rdf-syntax-ns#"
   xmlns:svg="http://www.w3.org/2000/svg"
   xmlns="http://www.w3.org/2000/svg"
   xmlns:sodipodi="http://sodipodi.sourceforge.net/DTD/sodipodi-0.dtd"
   xmlns:inkscape="http://www.inkscape.org/namespaces/inkscape"
   inkscape:version="1.0beta2 (2b71d25, 2019-12-03)"
   sodipodi:docname="flag_yellow_.pdf"
   viewBox="0 0 378.13599 252.09331"
   height="252.09332"
   width="378.13599"
   xml:space="preserve"
   id="svg2"
   version="1.1"><metadata
     id="metadata8"><rdf:RDF><cc:Work
         rdf:about=""><dc:format>image/svg+xml</dc:format><dc:type
           rdf:resource="http://purl.org/dc/dcmitype/StillImage" /><dc:title></dc:title></cc:Work></rdf:RDF></metadata><defs
     id="defs6" /><sodipodi:namedview
     inkscape:current-layer="g10"
     inkscape:window-maximized="0"
     inkscape:window-y="0"
     inkscape:window-x="0"
     inkscape:cy="188.4436"
     inkscape:cx="374.76836"
     inkscape:zoom="1.6036107"
     fit-margin-bottom="0"
     fit-margin-right="0"
     fit-margin-left="0"
     fit-margin-top="0"
     showgrid="false"
     id="namedview4"
     inkscape:window-height="900"
     inkscape:window-width="1440"
     inkscape:pageshadow="2"
     inkscape:pageopacity="0"
     guidetolerance="10"
     gridtolerance="10"
     objecttolerance="10"
     borderopacity="1"
     inkscape:document-rotation="0"
     bordercolor="#666666"
     pagecolor="#ffffff" /><g
     transform="matrix(1.3333333,0,0,-1.3333333,-206.02933,673.42132)"
     inkscape:label="flag_yellow_"
     inkscape:groupmode="layer"
     id="g10"><path
       inkscape:connector-curvature="0"
       id="path14"
       style="fill:#254aa5;fill-opacity:1;fill-rule:nonzero;stroke:none"
       d="M 154.522,505.066 H 438.124 V 315.996 H 154.522 Z" /><g
       transform="translate(290.2803,463.8711)"
       id="g16"><path
         inkscape:connector-curvature="0"
         id="path18"
         style="fill:#fff200;fill-opacity:1;fill-rule:nonzero;stroke:none"
         d="M 0,0 5.984,4.367 11.969,0 9.691,7.062 15.77,11.43 H 8.277 L 5.984,18.578 3.691,11.422 -3.797,11.43 2.277,7.062 Z" /></g><g
       transform="translate(259.3115,455.5508)"
       id="g20"><path
         inkscape:connector-curvature="0"
         id="path22"
         style="fill:#fff200;fill-opacity:1;fill-rule:nonzero;stroke:none"
         d="M 0,0 5.984,4.367 11.965,0 9.691,7.062 15.766,11.43 H 8.273 L 5.98,18.586 3.688,11.422 -3.801,11.43 2.273,7.062 Z" /></g><g
       transform="translate(242.6357,451.4258)"
       id="g24"><path
         inkscape:connector-curvature="0"
         id="path26"
         style="fill:#fff200;fill-opacity:1;fill-rule:nonzero;stroke:none"
         d="m 0,0 -2.293,-7.164 -7.488,0.008 6.074,-4.367 -2.277,-7.063 5.984,4.367 5.984,-4.367 -2.277,7.063 6.074,4.367 H 2.293 Z" /></g><g
       transform="translate(234.3232,406.2773)"
       id="g28"><path
         inkscape:connector-curvature="0"
         id="path30"
         style="fill:#fff200;fill-opacity:1;fill-rule:nonzero;stroke:none"
         d="M 0,0 5.98,-4.367 3.707,2.695 9.781,7.062 H 2.293 L 0,14.219 -2.293,7.047 -9.785,7.062 -3.707,2.695 -5.984,-4.367 Z" /></g><g
       transform="translate(244.9287,382.3164)"
       id="g32"><path
         inkscape:connector-curvature="0"
         id="path34"
         style="fill:#fff200;fill-opacity:1;fill-rule:nonzero;stroke:none"
         d="M 0,0 -2.293,7.156 -4.586,-0.008 -12.074,0 -6,-4.367 -8.277,-11.43 -2.293,-7.055 3.691,-11.43 1.414,-4.367 7.488,0 Z" /></g><g
       transform="translate(267.6318,359.6133)"
       id="g36"><path
         inkscape:connector-curvature="0"
         id="path38"
         style="fill:#fff200;fill-opacity:1;fill-rule:nonzero;stroke:none"
         d="M 0,0 -2.293,7.148 -4.582,-0.008 -12.074,0 -6,-4.367 -8.273,-11.43 -2.289,-7.062 3.691,-11.43 1.418,-4.367 7.492,0 Z" /></g><g
       transform="translate(298.5615,351.3867)"
       id="g40"><path
         inkscape:connector-curvature="0"
         id="path42"
         style="fill:#fff200;fill-opacity:1;fill-rule:nonzero;stroke:none"
         d="M 0,0 -2.293,7.156 -4.582,-0.008 -12.074,0 -6,-4.367 -8.273,-11.43 -2.289,-7.062 3.691,-11.43 1.414,-4.367 7.492,0 Z" /></g><g
       transform="translate(329.4912,359.6133)"
       id="g44"><path
         inkscape:connector-curvature="0"
         id="path46"
         style="fill:#fff200;fill-opacity:1;fill-rule:nonzero;stroke:none"
         d="M 0,0 -2.289,7.148 -4.586,-0.008 -12.07,0 -6,-4.367 -8.273,-11.43 -2.289,-7.062 3.695,-11.43 1.414,-4.367 7.492,0 Z" /></g><g
       transform="translate(352.2021,382.3164)"
       id="g48"><path
         inkscape:connector-curvature="0"
         id="path50"
         style="fill:#fff200;fill-opacity:1;fill-rule:nonzero;stroke:none"
         d="M 0,0 -2.297,7.156 -4.594,-0.008 -12.078,0 -6,-4.367 -8.281,-11.43 -2.297,-7.055 3.688,-11.43 1.406,-4.367 7.484,0 Z" /></g><g
       transform="translate(367.9131,413.4258)"
       id="g52"><path
         inkscape:connector-curvature="0"
         id="path54"
         style="fill:#fff200;fill-opacity:1;fill-rule:nonzero;stroke:none"
         d="M 0,0 H -7.492 L -9.789,7.156 -12.078,-0.008 -19.57,0 l 6.078,-4.367 -2.274,-7.063 5.977,4.375 5.984,-4.375 -2.273,7.063 z" /></g><g
       transform="translate(343.9209,432.9336)"
       id="g56"><path
         inkscape:connector-curvature="0"
         id="path58"
         style="fill:#fff200;fill-opacity:1;fill-rule:nonzero;stroke:none"
         d="M 0,0 5.984,4.367 11.969,0 9.688,7.062 l 6.078,4.36 H 8.281 l -2.297,7.156 -2.296,-7.164 -7.485,0.008 6.078,-4.36 z" /></g><g
       transform="translate(327.2881,474.1289)"
       id="g60"><path
         inkscape:connector-curvature="0"
         id="path62"
         style="fill:#fff200;fill-opacity:1;fill-rule:nonzero;stroke:none"
         d="m 0,0 -2.289,-7.164 -7.492,0.016 6.07,-4.375 -2.273,-7.063 5.992,4.375 5.976,-4.375 -2.273,7.063 6.078,4.375 h -7.5 z" /></g></g></svg>
